<svg width="23" height="26" viewBox="0 0 23 26" xmlns="http://www.w3.org/2000/svg">
    <path d="M22.926 22.692a4.958 4.958 0 0 1-2.308-.415 6.308 6.308 0 0 1-1.7-1.304c2.373-4.104 1.462-9.286-2.173-12.37l-1.748 1.99c2.388 2.032 3.199 5.332 2.018 8.213l-.032.07c-1.36-1.429-2.625-2.874-4.126-4.604-.97-1.12-1.847-2.178-2.694-3.22-.415.156-1.722.64-2.658.93l.168.213c.975 1.224 2.001 2.46 3.152 3.782 1.243 1.43 2.787 3.213 4.362 4.856.256.27.509.55.775.849.933 1.043 1.99 2.227 3.463 2.953a7.445 7.445 0 0 0 3.293.691H23l-.074-2.634zm-12.811.683c-4.097.004-7.425-3.255-7.437-7.284 0-2.414 1.486-4.566 3.972-5.757a14.743 14.743 0 0 1 1.903-.675c2.33-.719 5.521-1.703 5.521-5.258-.01-2.25-1.736-4.131-4.01-4.375-2.272-.243-4.369 1.23-4.871 3.424-.139.449-.553 2.153.2 4.571C2.063 9.647 0 12.746 0 16.093c.015 3.68 2.095 7.052 5.407 8.765a10.257 10.257 0 0 0 10.407-.59l-1.802-1.98a7.448 7.448 0 0 1-3.9 1.089l.003-.002zM7.749 4.214l.048-.172a1.818 1.818 0 0 1 1.965-1.409c.924.092 1.63.854 1.638 1.768 0 1.433-1.12 1.968-3.49 2.7-.52-1.76-.175-2.846-.163-2.885l.002-.002z" fill="#231F20" fill-rule="nonzero"/>
</svg>
