<svg width="50" height="50" viewBox="0 0 50 50" xmlns="http://www.w3.org/2000/svg">
    <g fill="#055FF9" fill-rule="nonzero">
        <path d="M25 4.507c6.675 0 7.465.026 10.102.146 2.437.111 3.76.518 4.642.86a7.745 7.745 0 0 1 2.878 1.87c.83.807 1.47 1.79 1.87 2.877.342.882.749 2.205.86 4.642.12 2.636.146 3.427.146 10.102 0 6.675-.026 7.465-.146 10.102-.111 2.437-.518 3.76-.86 4.642a8.279 8.279 0 0 1-4.745 4.744c-.881.342-2.205.749-4.642.86-2.636.12-3.427.146-10.103.146-6.675 0-7.466-.026-10.102-.146-2.437-.111-3.76-.518-4.642-.86a7.745 7.745 0 0 1-2.878-1.87 7.745 7.745 0 0 1-1.87-2.877c-.342-.882-.749-2.205-.86-4.642-.12-2.636-.146-3.427-.146-10.102 0-6.675.026-7.465.146-10.102.111-2.437.518-3.76.86-4.642A7.745 7.745 0 0 1 7.38 7.38a7.745 7.745 0 0 1 2.878-1.87c.881-.342 2.205-.749 4.642-.86 2.636-.12 3.427-.146 10.102-.146m0-4.504c-6.79 0-7.64.029-10.307.15-2.667.123-4.482.548-6.07 1.166a12.255 12.255 0 0 0-4.43 2.882 12.254 12.254 0 0 0-2.882 4.43C.695 10.216.272 12.034.15 14.694.03 17.354 0 18.212 0 25.001c0 6.79.029 7.64.15 10.307.123 2.666.545 4.478 1.163 6.066a12.254 12.254 0 0 0 2.884 4.428 12.255 12.255 0 0 0 4.429 2.885c1.587.618 3.407 1.041 6.068 1.162C17.354 49.97 18.212 50 25 50c6.79 0 7.642-.029 10.308-.15 2.667-.123 4.477-.546 6.064-1.163a12.783 12.783 0 0 0 7.314-7.313c.618-1.588 1.041-3.408 1.162-6.068.121-2.66.151-3.518.151-10.307 0-6.79-.029-7.64-.15-10.307-.123-2.666-.546-4.476-1.163-6.064A12.254 12.254 0 0 0 45.803 4.2a12.255 12.255 0 0 0-4.43-2.884C39.786.698 37.968.275 35.307.154 32.647.033 31.79.003 25 .003L25.002 0z"/>
        <path d="M25 12.165c-7.09 0-12.838 5.747-12.838 12.836 0 7.09 5.748 12.836 12.838 12.836 7.09 0 12.837-5.747 12.837-12.836A12.836 12.836 0 0 0 25 12.165zm0 21.171a8.336 8.336 0 1 1-.001-16.67 8.336 8.336 0 0 1 0 16.67z"/>
        <circle cx="38.345" cy="11.657" r="3"/>
    </g>
</svg>
