<svg width="90" height="90" viewBox="0 0 90 90" xmlns="http://www.w3.org/2000/svg" xmlns:xlink="http://www.w3.org/1999/xlink">
    <defs>
        <linearGradient x1="67.003%" y1="93.49%" x2="33.295%" y2="7.274%" id="9x23t3u95b">
            <stop stop-color="#055DF9" offset="0%"/>
            <stop stop-color="#00D1FF" offset="100%"/>
        </linearGradient>
        <path d="M45 0C20.17 0 0 20.168 0 45 0 69.83 20.169 90 45 90c24.832 0 45-20.169 45-45C90 20.168 69.832 0 45 0zM13.921 72.407A41.275 41.275 0 0 1 3.571 45c0-18.81 12.5-34.665 29.654-39.732C23.672 9.701 21.02 16.63 19.78 23.222c9.334-18.078 40.183-22.34 57.416-4.31A41.263 41.263 0 0 1 86.43 45a41.279 41.279 0 0 1-10.59 27.677C61.208 87.452 38.488 52.578 55.956 39.3c2.401-1.826 4.715-1.963 7.39-4.008-11.496 3.095-19.005 7.903-21.454 13.796-3.622 8.715-9.963 27.134-19.907 27.134-2.463 0-5.146-1.13-8.064-3.815z" id="uta4guehya"/>
    </defs>
    <g fill="none" fill-rule="evenodd">
        <mask id="ndnopzue6c" fill="#fff">
            <use xlink:href="#uta4guehya"/>
        </mask>
        <path d="M45 0C20.17 0 0 20.168 0 45 0 69.83 20.169 90 45 90c24.832 0 45-20.169 45-45C90 20.168 69.832 0 45 0zM13.921 72.407A41.275 41.275 0 0 1 3.571 45c0-18.81 12.5-34.665 29.654-39.732C23.672 9.701 21.02 16.63 19.78 23.222c9.334-18.078 40.183-22.34 57.416-4.31A41.263 41.263 0 0 1 86.43 45a41.279 41.279 0 0 1-10.59 27.677C61.208 87.452 38.488 52.578 55.956 39.3c2.401-1.826 4.715-1.963 7.39-4.008-11.496 3.095-19.005 7.903-21.454 13.796-3.622 8.715-9.963 27.134-19.907 27.134-2.463 0-5.146-1.13-8.064-3.815z" fill="url(#9x23t3u95b)" mask="url(#ndnopzue6c)"/>
        <path d="M8.897 45.401c0-.044.77-.579 1.713-1.19 9.76-5.154 26.194-14.909 38.164-18.158.697 0 .875.036 1.407.285.589.275 3.333 2.229 7.13 5.074 2 1.5 2.665 1.877 3.575 2.031.642.109 1.225.038 3.227-.394 1.097-.236 2.046-.21 2.696.075.756.33 8.024 5.356 12.478 8.627 1.072.787 1.95 1.452 1.95 1.477 0 .024-.19.049-.333-.05-.141-.097-1.561-.298-2.593-1.012-2.49-1.722-3.56-2.836-6.722-4.664-3.2-1.849-2.757-2.087-3.877-2.242-.638-.089-.835-.105-3.021.428-2.376.578-2.622.595-3.354.234-.322-.16-3.416-2.065-3.86-2.436-.444-.372-1.713-1.382-2.924-2.054-2.48-1.377-3.958-2.27-4.496-2.287-12.901 5.12-22.943 14.13-30.655 20.575C16.994 45.76 9.68 45.388 8.897 45.4z" fill="#000"/>
    </g>
</svg>
