<svg width="271" height="90" viewBox="0 0 271 90" xmlns="http://www.w3.org/2000/svg" xmlns:xlink="http://www.w3.org/1999/xlink">
    <defs>
        <path d="M45 0C20.17 0 0 20.168 0 45 0 69.83 20.169 90 45 90c24.832 0 45-20.169 45-45C90 20.168 69.832 0 45 0zM13.921 72.407A41.275 41.275 0 0 1 3.571 45c0-18.81 12.5-34.665 29.654-39.732C23.672 9.701 21.02 16.63 19.78 23.222c9.334-18.078 40.183-22.34 57.416-4.31A41.263 41.263 0 0 1 86.43 45a41.279 41.279 0 0 1-10.59 27.677C61.208 87.452 38.488 52.578 55.956 39.3c2.401-1.826 4.715-1.963 7.39-4.008-11.496 3.095-19.005 7.903-21.454 13.796-3.622 8.715-9.963 27.134-19.907 27.134-2.463 0-5.146-1.13-8.064-3.815z" id="9lhxda7h5a"/>
        <path id="qyf1sg91md" d="M0 90h271V0H0z"/>
        <linearGradient x1="67.003%" y1="93.49%" x2="33.295%" y2="7.274%" id="pna64bbfbb">
            <stop stop-color="#055DF9" offset="0%"/>
            <stop stop-color="#00D1FF" offset="100%"/>
        </linearGradient>
    </defs>
    <g fill="none" fill-rule="evenodd">
        <g transform="translate(95)">
            <mask id="jhw5o6owmc" fill="#fff">
                <use xlink:href="#9lhxda7h5a"/>
            </mask>
            <path d="M45 0C20.17 0 0 20.168 0 45 0 69.83 20.169 90 45 90c24.832 0 45-20.169 45-45C90 20.168 69.832 0 45 0zM13.921 72.407A41.275 41.275 0 0 1 3.571 45c0-18.81 12.5-34.665 29.654-39.732C23.672 9.701 21.02 16.63 19.78 23.222c9.334-18.078 40.183-22.34 57.416-4.31A41.263 41.263 0 0 1 86.43 45a41.279 41.279 0 0 1-10.59 27.677C61.208 87.452 38.488 52.578 55.956 39.3c2.401-1.826 4.715-1.963 7.39-4.008-11.496 3.095-19.005 7.903-21.454 13.796-3.622 8.715-9.963 27.134-19.907 27.134-2.463 0-5.146-1.13-8.064-3.815z" fill="url(#pna64bbfbb)" mask="url(#jhw5o6owmc)"/>
        </g>
        <path d="M103.897 45.401c0-.044.77-.579 1.713-1.19 9.76-5.154 26.194-14.909 38.164-18.158.697 0 .875.036 1.407.285.589.275 3.333 2.229 7.13 5.074 2 1.5 2.665 1.877 3.575 2.031.642.109 1.225.038 3.227-.394 1.097-.236 2.046-.21 2.696.075.756.33 8.024 5.356 12.478 8.627 1.072.787 1.95 1.452 1.95 1.477 0 .024-.19.049-.333-.05-.141-.097-1.561-.298-2.593-1.012-2.49-1.722-3.56-2.836-6.722-4.664-3.2-1.849-2.757-2.087-3.877-2.242-.638-.089-.835-.105-3.021.428-2.376.578-2.622.595-3.354.234-.322-.16-3.416-2.065-3.86-2.436-.444-.372-1.713-1.382-2.924-2.054-2.48-1.377-3.958-2.27-4.496-2.287-12.901 5.12-22.943 14.13-30.655 20.575-2.408-3.959-9.723-4.332-10.505-4.319zM6.603 43.844c.968 0 1.687-.236 2.156-.707.5-.472.749-1.263.749-2.374v-2.248c0-1.055-.206-1.818-.617-2.29-.381-.472-.997-.708-1.848-.708H4.842v8.327h1.76zM0 31.354h7.175c2.494 0 4.313.555 5.458 1.665 1.144 1.083 1.717 2.762 1.717 5.038v1.79c0 3.026-1.057 4.941-3.17 5.746v.083c1.174.333 1.996 1.013 2.465 2.04.5 1.027.749 2.401.749 4.122v5.121c0 .833.029 1.513.088 2.04.058.5.205 1 .44 1.5h-4.93a6.384 6.384 0 0 1-.352-1.333c-.059-.416-.088-1.166-.088-2.248v-5.33c0-1.332-.235-2.262-.705-2.789-.44-.527-1.217-.791-2.332-.791H4.842v12.49H0V31.355zM31.157 56.751c1.672 0 2.509-.957 2.509-2.872V37.974c0-1.915-.837-2.873-2.51-2.873-1.672 0-2.508.958-2.508 2.873v15.905c0 1.915.836 2.872 2.509 2.872m0 4.164c-2.377 0-4.197-.638-5.458-1.915-1.262-1.277-1.893-3.081-1.893-5.413V38.265c0-2.331.63-4.136 1.893-5.413 1.261-1.276 3.08-1.915 5.458-1.915 2.376 0 4.196.639 5.458 1.915 1.261 1.277 1.893 3.082 1.893 5.413v15.322c0 2.332-.632 4.136-1.893 5.413-1.262 1.277-3.082 1.915-5.458 1.915M55.007 60.915c-2.319 0-4.094-.625-5.326-1.874-1.204-1.249-1.805-3.011-1.805-5.287V38.099c0-2.277.601-4.04 1.805-5.288 1.232-1.25 3.007-1.874 5.326-1.874 2.318 0 4.078.625 5.282 1.874 1.232 1.249 1.848 3.011 1.848 5.288v3.08H57.56v-3.372c0-1.804-.807-2.706-2.42-2.706-1.614 0-2.421.902-2.421 2.706v16.28c0 1.776.807 2.664 2.42 2.664 1.614 0 2.421-.888 2.421-2.664v-4.455h4.578v4.122c0 2.276-.616 4.038-1.848 5.287-1.204 1.25-2.964 1.874-5.282 1.874M71.461 31.354h4.842v12.282l6.163-12.282h4.842l-5.767 10.7 5.855 18.444h-5.062l-4.094-12.99-1.937 3.706v9.284h-4.842zM39.791 21.855c0 .037-.003.07-.01.098a.219.219 0 0 1-.03.073.17.17 0 0 1-.05.043.167.167 0 0 1-.066.012h-1.946v4.988a.08.08 0 0 1-.015.047.104.104 0 0 1-.05.034.504.504 0 0 1-.096.022 1.107 1.107 0 0 1-.388-.022.105.105 0 0 1-.05-.034.082.082 0 0 1-.016-.047V22.08H35.13a.181.181 0 0 1-.07-.012.2.2 0 0 1-.046-.043.219.219 0 0 1-.03-.073.456.456 0 0 1 0-.201.222.222 0 0 1 .03-.077.123.123 0 0 1 .045-.043.14.14 0 0 1 .07-.017h4.507a.13.13 0 0 1 .065.017c.02.009.037.023.05.043.014.02.024.045.03.077.008.028.011.063.011.103zM45.509 27.069a.08.08 0 0 1-.015.047.104.104 0 0 1-.05.034.504.504 0 0 1-.096.022 1.153 1.153 0 0 1-.298 0 .502.502 0 0 1-.09-.022.105.105 0 0 1-.051-.034.082.082 0 0 1-.015-.047v-2.582h-3.256v2.582a.08.08 0 0 1-.015.047.104.104 0 0 1-.05.034.503.503 0 0 1-.097.022 1.033 1.033 0 0 1-.146.008c-.057 0-.106-.003-.146-.008a.503.503 0 0 1-.096-.022.105.105 0 0 1-.05-.034.082.082 0 0 1-.015-.047V21.7c0-.018.005-.034.015-.048a.103.103 0 0 1 .05-.034.484.484 0 0 1 .096-.021c.04-.006.09-.009.146-.009.06 0 .11.003.146.009.04.005.073.012.096.021a.1.1 0 0 1 .05.034c.01.014.016.03.016.048v2.32h3.256V21.7c0-.018.005-.034.015-.048a.103.103 0 0 1 .05-.034.482.482 0 0 1 .091-.021c.04-.006.09-.009.151-.009.057 0 .106.003.147.009.04.005.072.012.095.021a.1.1 0 0 1 .05.034c.01.014.016.03.016.048v5.368zM51.105 26.923c0 .037-.003.07-.01.099a.17.17 0 0 1-.035.072.147.147 0 0 1-.05.048.17.17 0 0 1-.066.012H47.89a.37.37 0 0 1-.187-.055c-.064-.04-.096-.112-.096-.214v-5c0-.103.032-.173.096-.21a.351.351 0 0 1 .187-.06h3.009c.023 0 .045.006.065.017.02.008.037.023.05.043a.22.22 0 0 1 .03.077.456.456 0 0 1 0 .201.219.219 0 0 1-.03.073.169.169 0 0 1-.05.042.165.165 0 0 1-.065.013h-2.677v1.948h2.309a.14.14 0 0 1 .07.017c.02.009.037.023.05.043a.177.177 0 0 1 .03.073.44.44 0 0 1 .011.103.42.42 0 0 1-.01.098.174.174 0 0 1-.03.064.125.125 0 0 1-.05.039.18.18 0 0 1-.071.013h-2.309v2.209h2.722c.023 0 .045.005.066.017.02.008.037.023.05.043a.143.143 0 0 1 .035.072c.007.029.01.063.01.103zM200.947 43.844c.969 0 1.687-.236 2.157-.707.499-.472.748-1.263.748-2.374v-2.248c0-1.055-.205-1.818-.616-2.29-.381-.472-.998-.708-1.849-.708h-2.2v8.327h1.76zm-6.603-12.49h7.175c2.495 0 4.314.555 5.458 1.665 1.145 1.083 1.717 2.762 1.717 5.038v1.79c0 3.026-1.056 4.941-3.169 5.746v.083c1.174.333 1.996 1.013 2.465 2.04.499 1.027.748 2.401.748 4.122v5.121c0 .833.03 1.513.088 2.04.059.5.205 1 .44 1.5h-4.93a6.388 6.388 0 0 1-.352-1.333c-.058-.416-.088-1.165-.088-2.248v-5.33c0-1.332-.234-2.262-.704-2.789-.44-.527-1.218-.791-2.333-.791h-1.673v12.49h-4.842V31.355z" fill="#000"/>
        <mask id="d1rbcbrzte" fill="#fff">
            <use xlink:href="#qyf1sg91md"/>
        </mask>
        <path fill="#000" mask="url(#d1rbcbrzte)" d="M218.502 60.498h4.842V31.354h-4.842zM240.372 56.751c1.672 0 2.508-.957 2.508-2.872V37.974c0-1.916-.836-2.873-2.508-2.873-1.673 0-2.51.957-2.51 2.873v15.905c0 1.915.837 2.872 2.51 2.872m0 4.164c-2.377 0-4.197-.638-5.458-1.915-1.262-1.277-1.893-3.081-1.893-5.413V38.265c0-2.331.63-4.136 1.893-5.412 1.261-1.277 3.08-1.916 5.458-1.916 2.377 0 4.196.639 5.458 1.916 1.262 1.276 1.892 3.08 1.892 5.412v15.322c0 2.332-.63 4.136-1.892 5.413-1.262 1.277-3.081 1.915-5.458 1.915M263.693 60.915c-2.347 0-4.123-.625-5.326-1.874-1.203-1.276-1.804-3.095-1.804-5.454v-1.665h4.577v1.998c0 1.888.837 2.831 2.51 2.831.82 0 1.437-.222 1.848-.666.44-.472.66-1.221.66-2.248 0-1.221-.293-2.29-.88-3.206-.587-.944-1.673-2.068-3.257-3.373-1.996-1.665-3.39-3.164-4.182-4.496-.792-1.36-1.188-2.887-1.188-4.58 0-2.304.616-4.08 1.848-5.33 1.233-1.276 3.023-1.915 5.37-1.915 2.319 0 4.065.639 5.238 1.916 1.203 1.249 1.805 3.053 1.805 5.412v1.208h-4.578v-1.5c0-.999-.205-1.72-.616-2.164-.41-.472-1.012-.708-1.805-.708-1.614 0-2.42.93-2.42 2.79 0 1.054.293 2.04.88 2.955.616.916 1.716 2.027 3.3 3.331 2.026 1.666 3.42 3.179 4.183 4.539.762 1.36 1.144 2.956 1.144 4.788 0 2.387-.631 4.219-1.893 5.496-1.232 1.276-3.037 1.915-5.414 1.915zM198.905 67.719c0-.323-.049-.621-.146-.895a1.814 1.814 0 0 0-.444-.715 2.02 2.02 0 0 0-.756-.467c-.306-.114-.695-.17-1.169-.17h-1.003v4.606h1.008c.444 0 .818-.046 1.124-.137a1.91 1.91 0 0 0 .771-.433c.205-.194.358-.438.459-.732a3.2 3.2 0 0 0 .156-1.057m.66-.026c0 .465-.069.876-.206 1.233a2.28 2.28 0 0 1-.61.89c-.27.24-.602.421-.998.544-.393.123-.864.184-1.412.184h-1.285a.37.37 0 0 1-.186-.055c-.064-.04-.096-.112-.096-.214v-5c0-.103.032-.173.096-.21a.351.351 0 0 1 .186-.06h1.371c.555 0 1.022.064 1.401.192a2.6 2.6 0 0 1 .958.548c.259.234.453.517.585.848.13.328.196.695.196 1.1M205.503 70.313c0 .037-.004.07-.01.099a.17.17 0 0 1-.036.072.147.147 0 0 1-.05.048.17.17 0 0 1-.066.012h-3.054a.37.37 0 0 1-.187-.055c-.063-.04-.095-.112-.095-.214v-5c0-.103.032-.173.095-.21a.351.351 0 0 1 .187-.06h3.009c.023 0 .045.005.065.017.02.008.037.023.05.043a.22.22 0 0 1 .031.077.456.456 0 0 1 0 .2.219.219 0 0 1-.03.074.169.169 0 0 1-.05.042.165.165 0 0 1-.066.013h-2.676v1.948h2.308a.14.14 0 0 1 .07.017c.02.009.037.023.051.043a.18.18 0 0 1 .03.073c.007.028.01.063.01.103 0 .037-.003.07-.01.098a.179.179 0 0 1-.03.064.125.125 0 0 1-.05.039.18.18 0 0 1-.071.013h-2.308v2.208h2.721c.024 0 .046.006.066.018.02.008.037.022.05.043a.143.143 0 0 1 .035.072c.007.029.01.063.01.103zM215.954 65.565h-.005l-1.23 2.98h2.495l-1.26-2.98zm2.707 4.804c.02.043.028.078.025.107a.067.067 0 0 1-.036.06.201.201 0 0 1-.1.025 1.38 1.38 0 0 1-.172.009c-.07 0-.127-.003-.171-.009a.376.376 0 0 1-.096-.017.137.137 0 0 1-.055-.034.366.366 0 0 1-.03-.051l-.626-1.477h-2.862l-.6 1.468a.137.137 0 0 1-.03.052.19.19 0 0 1-.056.038.503.503 0 0 1-.1.021 1.51 1.51 0 0 1-.333 0 .272.272 0 0 1-.106-.03.084.084 0 0 1-.035-.06c0-.025.01-.06.03-.102l2.283-5.27a.13.13 0 0 1 .046-.056.198.198 0 0 1 .075-.038 1.363 1.363 0 0 1 .428-.017.617.617 0 0 1 .116.017.16.16 0 0 1 .076.038c.02.014.035.033.045.056l2.284 5.27zM225.48 65.702a.495.495 0 0 1-.01.103.273.273 0 0 1-.03.082.108.108 0 0 1-.046.047.096.096 0 0 1-.055.017c-.04 0-.108-.029-.202-.086a3.655 3.655 0 0 0-.933-.372 3.114 3.114 0 0 0-.78-.086c-.387 0-.731.061-1.034.184a2.2 2.2 0 0 0-.766.497 2.146 2.146 0 0 0-.479.753c-.107.288-.16.6-.16.934 0 .374.061.707.186 1.001.124.291.295.538.514.74.221.2.483.353.786.459.306.106.638.158.998.158.232 0 .467-.024.706-.072a2.86 2.86 0 0 0 .67-.223v-1.794h-1.664a.136.136 0 0 1-.12-.06.305.305 0 0 1-.04-.17c0-.04.003-.075.01-.104a.179.179 0 0 1 .03-.073.114.114 0 0 1 .05-.042.14.14 0 0 1 .07-.017h1.996c.03 0 .063.004.096.013a.259.259 0 0 1 .091.042c.03.02.054.049.07.086a.289.289 0 0 1 .026.128v2.06a.356.356 0 0 1-.04.175c-.024.048-.081.096-.172.141a4.333 4.333 0 0 1-.832.279c-.16.034-.324.06-.488.077-.162.02-.321.03-.48.03-.493 0-.935-.067-1.325-.202a2.85 2.85 0 0 1-.983-.573 2.514 2.514 0 0 1-.61-.882 2.94 2.94 0 0 1-.211-1.13c0-.431.075-.824.226-1.178.155-.356.37-.66.646-.911.279-.252.611-.446.998-.583a3.74 3.74 0 0 1 1.28-.21 3.8 3.8 0 0 1 .665.056c.212.037.402.083.57.137.168.051.31.109.428.171.118.06.197.109.237.146a.257.257 0 0 1 .086.103.35.35 0 0 1 .025.15zM232.879 68.507c0 .336-.057.636-.171.899-.111.262-.271.483-.48.663-.208.18-.46.317-.755.411a3.354 3.354 0 0 1-.993.137 3.07 3.07 0 0 1-.922-.133 2.11 2.11 0 0 1-.726-.39 1.825 1.825 0 0 1-.474-.641 2.219 2.219 0 0 1-.167-.887V65.09a.08.08 0 0 1 .016-.047.101.101 0 0 1 .05-.034.623.623 0 0 1 .096-.021.997.997 0 0 1 .146-.009c.057 0 .106.003.146.009.04.005.072.012.096.02a.1.1 0 0 1 .05.035c.01.014.015.03.015.047v3.39c0 .278.04.52.116.729a1.4 1.4 0 0 0 .343.522c.151.137.333.241.544.312.215.069.457.103.726.103.272 0 .514-.033.726-.098.215-.069.397-.172.544-.308a1.33 1.33 0 0 0 .338-.51c.08-.205.12-.445.12-.72v-3.42a.08.08 0 0 1 .016-.047.101.101 0 0 1 .05-.034.477.477 0 0 1 .096-.021c.04-.006.09-.009.146-.009.058 0 .106.003.147.009.04.005.072.012.095.02a.1.1 0 0 1 .05.035c.01.014.016.03.016.047v3.417zM237.46 65.565h-.005l-1.23 2.98h2.495l-1.26-2.98zm2.707 4.804c.02.043.029.078.025.107a.067.067 0 0 1-.035.06.201.201 0 0 1-.1.025 1.38 1.38 0 0 1-.172.009c-.07 0-.128-.003-.171-.009a.376.376 0 0 1-.096-.017.137.137 0 0 1-.056-.034.366.366 0 0 1-.03-.051l-.625-1.477h-2.863l-.6 1.468a.137.137 0 0 1-.03.052.19.19 0 0 1-.055.038.507.507 0 0 1-.101.021 1.51 1.51 0 0 1-.333 0 .272.272 0 0 1-.106-.03.084.084 0 0 1-.035-.06c0-.025.01-.06.03-.102l2.284-5.27a.132.132 0 0 1 .045-.056.201.201 0 0 1 .075-.038 1.363 1.363 0 0 1 .428-.017.617.617 0 0 1 .117.017.159.159 0 0 1 .075.038.13.13 0 0 1 .046.056l2.283 5.27zM250.628 70.45a.168.168 0 0 1-.045.06.249.249 0 0 1-.08.034.545.545 0 0 1-.117.017 1.225 1.225 0 0 1-.262.004.437.437 0 0 1-.09-.008.465.465 0 0 1-.07-.013.284.284 0 0 1-.056-.022.128.128 0 0 1-.066-.072l-2.233-5.27a.26.26 0 0 1-.03-.103.083.083 0 0 1 .04-.064.235.235 0 0 1 .106-.026 1.624 1.624 0 0 1 .338 0c.04.003.07.009.09.017a.1.1 0 0 1 .051.034.22.22 0 0 1 .035.052l2.027 4.876h.005l1.965-4.876a.199.199 0 0 1 .026-.052.1.1 0 0 1 .05-.034 1.376 1.376 0 0 1 .277-.026c.077 0 .138.003.181.01.048.005.08.015.096.029.02.014.029.034.025.06 0 .026-.01.06-.03.103l-2.233 5.27zM255.633 70.459a.08.08 0 0 1-.015.047.104.104 0 0 1-.05.034.503.503 0 0 1-.096.022 1.033 1.033 0 0 1-.146.008c-.057 0-.106-.003-.146-.008a.503.503 0 0 1-.096-.022.105.105 0 0 1-.05-.034.082.082 0 0 1-.016-.047V65.09c0-.017.006-.033.016-.047a.14.14 0 0 1 .055-.034.623.623 0 0 1 .096-.021 1.02 1.02 0 0 1 .14-.009c.061 0 .11.003.147.009.04.005.072.012.096.02a.1.1 0 0 1 .05.035c.01.014.015.03.015.047v5.369zM260.805 70.45a.168.168 0 0 1-.046.06.249.249 0 0 1-.08.034.545.545 0 0 1-.116.017 1.225 1.225 0 0 1-.262.004.437.437 0 0 1-.091-.008.465.465 0 0 1-.07-.013.284.284 0 0 1-.056-.022.128.128 0 0 1-.066-.072l-2.233-5.27a.26.26 0 0 1-.03-.103.083.083 0 0 1 .04-.064.235.235 0 0 1 .106-.026 1.624 1.624 0 0 1 .338 0c.04.003.07.009.09.017.024.009.041.02.051.034a.226.226 0 0 1 .036.052l2.026 4.876h.005l1.965-4.876a.199.199 0 0 1 .026-.052.1.1 0 0 1 .05-.034 1.376 1.376 0 0 1 .277-.026c.077 0 .138.003.182.01.047.005.079.015.096.029.02.014.028.034.025.06 0 .026-.01.06-.03.103l-2.233 5.27zM266.666 65.565h-.005l-1.23 2.98h2.495l-1.26-2.98zm2.707 4.804c.02.043.028.078.025.107a.067.067 0 0 1-.035.06.201.201 0 0 1-.1.025c-.045.006-.102.009-.172.009-.07 0-.128-.003-.172-.009a.376.376 0 0 1-.096-.017.137.137 0 0 1-.055-.034.366.366 0 0 1-.03-.051l-.625-1.477h-2.863l-.6 1.468a.14.14 0 0 1-.03.052.193.193 0 0 1-.056.038.507.507 0 0 1-.1.021 1.567 1.567 0 0 1-.333 0 .272.272 0 0 1-.106-.03.084.084 0 0 1-.035-.06c0-.025.01-.06.03-.102l2.283-5.27a.134.134 0 0 1 .046-.056.201.201 0 0 1 .075-.038 1.357 1.357 0 0 1 .428-.017.617.617 0 0 1 .117.017.16.16 0 0 1 .075.038c.02.014.035.033.046.056l2.283 5.27zM234.52 27.063a.08.08 0 0 1-.016.047.104.104 0 0 1-.05.035.504.504 0 0 1-.096.021 1.037 1.037 0 0 1-.146.009c-.057 0-.106-.003-.146-.009a.503.503 0 0 1-.096-.021.105.105 0 0 1-.05-.035.082.082 0 0 1-.016-.047v-5.368c0-.017.005-.033.015-.047a.14.14 0 0 1 .056-.035.623.623 0 0 1 .095-.02 1.02 1.02 0 0 1 .142-.01 1 1 0 0 1 .146.01c.04.005.072.012.096.02a.1.1 0 0 1 .05.035c.01.014.015.03.015.047v5.368zM242.11 22.307a.495.495 0 0 1-.01.103.273.273 0 0 1-.03.081.108.108 0 0 1-.046.047.096.096 0 0 1-.056.017c-.04 0-.107-.028-.201-.085a3.655 3.655 0 0 0-.933-.372 3.114 3.114 0 0 0-.78-.086c-.387 0-.732.061-1.034.184a2.2 2.2 0 0 0-.766.496 2.146 2.146 0 0 0-.479.754c-.108.288-.161.6-.161.933 0 .374.062.708.186 1.002.125.291.296.538.514.74.222.2.484.353.786.459.306.105.639.158.999.158.231 0 .466-.024.705-.073.239-.048.462-.123.67-.222v-1.794h-1.663a.136.136 0 0 1-.12-.06.305.305 0 0 1-.041-.171c0-.04.003-.075.01-.103a.179.179 0 0 1 .03-.073.114.114 0 0 1 .05-.043.14.14 0 0 1 .071-.017h1.996c.03 0 .062.004.096.013a.259.259 0 0 1 .09.043c.031.02.054.048.071.086a.289.289 0 0 1 .025.128v2.059a.356.356 0 0 1-.04.176c-.023.048-.08.095-.171.14a4.333 4.333 0 0 1-.832.28c-.161.033-.324.06-.489.076-.161.02-.32.03-.479.03-.494 0-.935-.067-1.325-.201a2.85 2.85 0 0 1-.983-.574 2.517 2.517 0 0 1-.61-.882 2.94 2.94 0 0 1-.212-1.13c0-.43.076-.823.227-1.177.155-.357.37-.66.645-.912.28-.251.612-.445.998-.582a3.74 3.74 0 0 1 1.28-.21 3.8 3.8 0 0 1 .666.056c.212.037.401.082.57.137.167.051.31.108.428.171.117.06.196.108.237.146a.256.256 0 0 1 .085.102.35.35 0 0 1 .026.15zM248.107 26.91c0 .04-.003.073-.01.102a.279.279 0 0 1-.03.077.149.149 0 0 1-.05.047.177.177 0 0 1-.071.013h-2.827a.37.37 0 0 1-.187-.056c-.064-.04-.096-.111-.096-.214v-5.184a.08.08 0 0 1 .016-.047.103.103 0 0 1 .05-.035.481.481 0 0 1 .096-.021c.04-.006.089-.008.146-.008a1 1 0 0 1 .146.008c.04.005.072.013.096.021a.1.1 0 0 1 .05.035.08.08 0 0 1 .015.047v4.979h2.495a.14.14 0 0 1 .07.017c.02.008.038.023.051.042a.175.175 0 0 1 .03.073c.007.029.01.063.01.103zM253.626 26.918c0 .037-.003.07-.01.098a.17.17 0 0 1-.035.073.147.147 0 0 1-.05.047.17.17 0 0 1-.066.013h-3.054a.37.37 0 0 1-.187-.056c-.064-.04-.095-.111-.095-.214v-5c0-.103.031-.173.095-.21a.351.351 0 0 1 .187-.06h3.009c.023 0 .045.006.065.017.02.009.037.023.05.043a.22.22 0 0 1 .03.077.456.456 0 0 1 0 .201.219.219 0 0 1-.03.073.169.169 0 0 1-.05.043.165.165 0 0 1-.065.013h-2.677v1.948h2.309a.14.14 0 0 1 .07.017c.02.008.037.023.05.043a.18.18 0 0 1 .031.072c.007.029.01.063.01.103 0 .037-.003.07-.01.099a.179.179 0 0 1-.03.064.125.125 0 0 1-.05.038.18.18 0 0 1-.071.013h-2.309v2.209h2.722c.024 0 .045.006.066.017.02.009.037.023.05.043a.143.143 0 0 1 .035.073c.007.028.01.062.01.102zM259.342 25.65a1.372 1.372 0 0 1-.595 1.156 2.114 2.114 0 0 1-.67.309c-.259.071-.541.107-.847.107a3.23 3.23 0 0 1-.59-.052 3.677 3.677 0 0 1-.861-.252 1.092 1.092 0 0 1-.202-.12.311.311 0 0 1-.08-.116.485.485 0 0 1-.026-.167c0-.048.004-.088.01-.12a.334.334 0 0 1 .025-.077.095.095 0 0 1 .046-.038.156.156 0 0 1 .06-.013c.047 0 .113.026.197.077.087.049.198.103.333.163.137.057.3.111.488.163.192.048.414.072.666.072.205 0 .393-.023.564-.068.172-.049.32-.117.444-.206a.92.92 0 0 0 .393-.77.741.741 0 0 0-.131-.441 1.217 1.217 0 0 0-.348-.321 2.707 2.707 0 0 0-.484-.253 18.84 18.84 0 0 0-.56-.227 9.346 9.346 0 0 1-.554-.248 2.544 2.544 0 0 1-.489-.308 1.47 1.47 0 0 1-.342-.42 1.167 1.167 0 0 1-.131-.57 1.19 1.19 0 0 1 .519-1.005c.165-.12.361-.211.59-.274a2.903 2.903 0 0 1 1.577.03c.128.034.24.074.338.12.1.042.166.078.196.107a.215.215 0 0 1 .06.06c.011.01.02.026.026.047.007.02.012.044.015.072a.811.811 0 0 1 .005.099.477.477 0 0 1-.01.103.26.26 0 0 1-.02.077.124.124 0 0 1-.04.047.076.076 0 0 1-.05.017.434.434 0 0 1-.172-.06 3.194 3.194 0 0 0-.282-.141 2.5 2.5 0 0 0-.409-.137 2.07 2.07 0 0 0-.539-.064c-.198 0-.371.022-.52.068-.147.046-.27.108-.367.188a.769.769 0 0 0-.222.274.81.81 0 0 0-.07.334c0 .171.043.319.13.441.088.123.204.232.349.326.144.094.307.18.488.256l.56.227c.191.074.378.156.56.244.184.086.349.189.493.309.145.117.26.255.348.415.087.157.131.344.131.56zM262.296 27.063a.08.08 0 0 1-.016.047.104.104 0 0 1-.05.035.503.503 0 0 1-.096.021 1.033 1.033 0 0 1-.146.009c-.057 0-.106-.003-.146-.009a.495.495 0 0 1-.096-.021.105.105 0 0 1-.05-.035.082.082 0 0 1-.015-.047v-5.368c0-.017.005-.033.015-.047a.14.14 0 0 1 .055-.035.623.623 0 0 1 .096-.02 1.02 1.02 0 0 1 .141-.01c.06 0 .11.003.146.01.04.005.073.012.096.02a.1.1 0 0 1 .05.035c.01.014.016.03.016.047v5.368zM267.094 22.17h-.005l-1.23 2.98h2.495l-1.26-2.98zm2.706 4.803c.02.043.029.079.025.107a.067.067 0 0 1-.035.06.201.201 0 0 1-.1.026 1.38 1.38 0 0 1-.172.008c-.07 0-.127-.002-.171-.008a.376.376 0 0 1-.096-.017.137.137 0 0 1-.055-.034.391.391 0 0 1-.03-.052l-.626-1.477h-2.862l-.6 1.469a.137.137 0 0 1-.03.051.19.19 0 0 1-.056.039.507.507 0 0 1-.1.02 1.51 1.51 0 0 1-.333 0 .272.272 0 0 1-.106-.03.084.084 0 0 1-.036-.059c0-.026.01-.06.03-.103l2.284-5.27a.132.132 0 0 1 .045-.055.201.201 0 0 1 .076-.039 1.363 1.363 0 0 1 .428-.017.617.617 0 0 1 .116.017.16.16 0 0 1 .076.039c.02.014.035.032.045.055l2.283 5.27zM222.25 24.482h5.664l-2.163 1.975-2.887 2.636h-3.918z"/>
    </g>
</svg>
