<svg width="400.478" height="133" viewBox="0 0 400.478 133" xmlns="http://www.w3.org/2000/svg" xmlns:xlink="http://www.w3.org/1999/xlink">
    <defs>
        <path d="M66.5 0C29.805 0 0 29.804 0 66.5 0 103.194 29.805 133 66.5 133c36.696 0 66.5-29.805 66.5-66.5C133 29.803 103.196 0 66.5 0zM20.572 107.001C11.053 96.212 5.278 82.039 5.278 66.499c0-27.796 18.47-51.227 43.821-58.714-14.117 6.55-18.038 16.79-19.868 26.531 13.793-26.714 59.38-33.012 84.847-6.369 8.533 10.521 13.646 23.932 13.646 38.552 0 15.732-5.918 30.065-15.65 40.902C90.453 129.234 56.878 77.7 82.69 58.076c3.55-2.698 6.969-2.9 10.92-5.923-16.987 4.575-28.084 11.68-31.703 20.388-5.352 12.879-14.723 40.098-29.419 40.099-3.638 0-7.604-1.67-11.916-5.639z" id="izv6bod0ma"/>
        <path id="vbuic6mj9d" d="M0 133h400.478V0H0z"/>
        <linearGradient x1="67.003%" y1="93.49%" x2="33.295%" y2="7.274%" id="vepup4yfeb">
            <stop stop-color="#055DF9" offset="0%"/>
            <stop stop-color="#00D1FF" offset="100%"/>
        </linearGradient>
    </defs>
    <g fill="none" fill-rule="evenodd">
        <g transform="translate(140.389)">
            <mask id="nso206cp0c" fill="#fff">
                <use xlink:href="#izv6bod0ma"/>
            </mask>
            <path d="M66.5 0C29.805 0 0 29.804 0 66.5 0 103.194 29.805 133 66.5 133c36.696 0 66.5-29.805 66.5-66.5C133 29.803 103.196 0 66.5 0zM20.572 107.001C11.053 96.212 5.278 82.039 5.278 66.499c0-27.796 18.47-51.227 43.821-58.714-14.117 6.55-18.038 16.79-19.868 26.531 13.793-26.714 59.38-33.012 84.847-6.369 8.533 10.521 13.646 23.932 13.646 38.552 0 15.732-5.918 30.065-15.65 40.902C90.453 129.234 56.878 77.7 82.69 58.076c3.55-2.698 6.969-2.9 10.92-5.923-16.987 4.575-28.084 11.68-31.703 20.388-5.352 12.879-14.723 40.098-29.419 40.099-3.638 0-7.604-1.67-11.916-5.639z" fill="url(#vepup4yfeb)" mask="url(#nso206cp0c)"/>
        </g>
        <path d="M153.537 67.093c0-.065 1.139-.856 2.53-1.758 14.424-7.618 38.71-22.033 56.399-26.835 1.03 0 1.293.053 2.08.421.869.408 4.925 3.294 10.536 7.5 2.955 2.215 3.939 2.773 5.282 3 .95.161 1.81.056 4.77-.581 1.621-.35 3.024-.311 3.984.11 1.117.488 11.858 7.915 18.44 12.748 1.583 1.164 2.88 2.146 2.88 2.183 0 .036-.28.072-.49-.072-.21-.145-2.308-.442-3.833-1.497-3.68-2.545-5.26-4.191-9.933-6.892-4.73-2.733-4.075-3.084-5.73-3.314-.943-.131-1.233-.154-4.464.632-3.512.855-3.874.88-4.956.347-.477-.236-5.05-3.053-5.705-3.6-.657-.55-2.532-2.042-4.321-3.036-3.666-2.035-5.85-3.354-6.644-3.38-19.065 7.566-33.905 20.881-45.301 30.405-3.56-5.849-14.37-6.4-15.524-6.38zM9.757 64.792c1.431 0 2.493-.349 3.187-1.046.738-.697 1.106-1.866 1.106-3.507v-3.322c0-1.56-.303-2.687-.91-3.385-.564-.697-1.475-1.045-2.732-1.045H7.155v12.305h2.602zM0 46.334h10.603c3.686 0 6.374.82 8.065 2.46 1.692 1.6 2.537 4.082 2.537 7.446v2.646c0 4.47-1.56 7.3-4.683 8.49v.123c1.735.493 2.949 1.497 3.643 3.015.737 1.518 1.106 3.548 1.106 6.092v7.567c0 1.231.043 2.236.13 3.016.086.738.303 1.476.65 2.214h-7.285a9.434 9.434 0 0 1-.52-1.968c-.087-.616-.13-1.723-.13-3.323v-7.875c0-1.97-.348-3.343-1.041-4.123-.65-.78-1.8-1.169-3.448-1.169H7.155v18.458H0v-43.07zM46.043 83.866c2.471 0 3.707-1.415 3.707-4.245V56.117c0-2.83-1.236-4.246-3.707-4.246-2.472 0-3.708 1.416-3.708 4.246V79.62c0 2.83 1.236 4.245 3.708 4.245m0 6.153c-3.513 0-6.201-.944-8.066-2.83-1.865-1.888-2.797-4.554-2.797-8V56.548c0-3.445.932-6.111 2.797-7.998 1.865-1.887 4.553-2.83 8.066-2.83 3.512 0 6.2.943 8.066 2.83 1.864 1.887 2.797 4.553 2.797 7.998V79.19c0 3.445-.933 6.111-2.797 7.998-1.865 1.887-4.554 2.83-8.066 2.83M81.287 90.019c-3.426 0-6.049-.923-7.87-2.77-1.778-1.845-2.667-4.45-2.667-7.813V56.301c0-3.363.889-5.968 2.667-7.814 1.821-1.846 4.444-2.768 7.87-2.768s6.028.922 7.806 2.768c1.821 1.846 2.732 4.45 2.732 7.814v4.553H85.06v-4.983c0-2.667-1.192-4-3.577-4-2.386 0-3.578 1.333-3.578 4v24.057c0 2.625 1.192 3.938 3.578 3.938 2.385 0 3.577-1.313 3.577-3.938v-6.583h6.765v6.091c0 3.363-.91 5.968-2.732 7.814-1.778 1.846-4.38 2.769-7.806 2.769M105.604 46.334h7.156v18.15l9.106-18.15h7.155L120.5 62.147l8.651 27.256h-7.48l-6.05-19.196-2.861 5.476v13.72h-7.156zM58.802 32.296a.638.638 0 0 1-.015.146.323.323 0 0 1-.044.107.25.25 0 0 1-.075.064.247.247 0 0 1-.096.018h-2.876v7.37a.118.118 0 0 1-.022.07.154.154 0 0 1-.074.051.745.745 0 0 1-.142.032c-.06.008-.131.012-.216.012a1.63 1.63 0 0 1-.216-.012.732.732 0 0 1-.141-.032.155.155 0 0 1-.075-.05.12.12 0 0 1-.022-.07v-7.37h-2.875a.268.268 0 0 1-.105-.02.296.296 0 0 1-.067-.063.323.323 0 0 1-.044-.107.64.64 0 0 1-.015-.146c0-.059.005-.11.015-.152a.328.328 0 0 1 .044-.114c.02-.029.042-.05.067-.063a.208.208 0 0 1 .105-.025h6.659c.034 0 .067.008.096.025a.17.17 0 0 1 .075.063c.02.03.034.068.044.114.01.042.015.093.015.152zM67.252 40.002a.118.118 0 0 1-.023.07.154.154 0 0 1-.074.05.745.745 0 0 1-.141.032 1.64 1.64 0 0 1-.217.012c-.089 0-.163-.004-.223-.012a.742.742 0 0 1-.134-.032.155.155 0 0 1-.075-.05.12.12 0 0 1-.022-.07v-3.815h-4.812v3.815a.118.118 0 0 1-.022.07.154.154 0 0 1-.074.05.743.743 0 0 1-.142.032 1.527 1.527 0 0 1-.216.012 1.63 1.63 0 0 1-.216-.012.743.743 0 0 1-.142-.032.155.155 0 0 1-.074-.05.12.12 0 0 1-.022-.07v-7.933a.12.12 0 0 1 .022-.07.153.153 0 0 1 .074-.05.716.716 0 0 1 .142-.032 1.57 1.57 0 0 1 .216-.013c.09 0 .161.004.216.013a.69.69 0 0 1 .142.031c.035.013.06.03.074.05.015.022.022.045.022.07v3.43h4.812v-3.43a.12.12 0 0 1 .022-.07.153.153 0 0 1 .075-.05.712.712 0 0 1 .134-.031c.06-.009.134-.013.223-.013.085 0 .157.004.217.013.059.008.106.018.141.031.035.013.06.03.074.05.015.022.023.045.023.07v7.934zM75.522 39.787a.638.638 0 0 1-.015.145.252.252 0 0 1-.052.108.218.218 0 0 1-.074.07.25.25 0 0 1-.097.018H70.77a.545.545 0 0 1-.275-.082c-.095-.059-.142-.165-.142-.316v-7.39c0-.151.047-.255.142-.31a.519.519 0 0 1 .275-.088h4.447c.035 0 .067.008.097.025.03.013.054.034.074.063.02.03.035.068.045.114.01.042.015.093.015.152a.64.64 0 0 1-.015.146.323.323 0 0 1-.045.107.25.25 0 0 1-.074.063.244.244 0 0 1-.097.02h-3.955v2.878h3.411c.04 0 .075.008.104.025.03.013.055.034.075.064.02.025.035.06.044.107a.65.65 0 0 1 .015.152.62.62 0 0 1-.015.145.258.258 0 0 1-.044.095.184.184 0 0 1-.075.057.267.267 0 0 1-.104.02h-3.411v3.263h4.022c.035 0 .067.009.097.026.03.012.054.033.074.063.025.025.042.061.052.108a.67.67 0 0 1 .015.151zM296.955 64.792c1.431 0 2.494-.349 3.187-1.046.738-.697 1.106-1.866 1.106-3.507v-3.322c0-1.56-.303-2.687-.91-3.384-.564-.698-1.475-1.046-2.732-1.046h-3.253v12.305h2.602zm-9.757-18.458H297.8c3.686 0 6.375.82 8.066 2.46 1.69 1.6 2.537 4.082 2.537 7.446v2.646c0 4.47-1.561 7.3-4.684 8.49v.123c1.735.493 2.95 1.498 3.643 3.015.737 1.518 1.106 3.548 1.106 6.092v7.567c0 1.231.043 2.236.13 3.015.086.739.303 1.477.65 2.215h-7.285a9.44 9.44 0 0 1-.52-1.968c-.087-.616-.13-1.723-.13-3.323v-7.875c0-1.97-.347-3.343-1.041-4.123-.65-.78-1.8-1.169-3.448-1.169h-2.472v18.458h-7.155v-43.07z" fill="#000"/>
        <mask id="zsnts47owe" fill="#fff">
            <use xlink:href="#vbuic6mj9d"/>
        </mask>
        <path fill="#000" mask="url(#zsnts47owe)" d="M322.898 89.403h7.155v-43.07h-7.155zM355.216 83.866c2.472 0 3.707-1.415 3.707-4.246V56.117c0-2.83-1.235-4.246-3.707-4.246-2.472 0-3.708 1.415-3.708 4.246V79.62c0 2.83 1.236 4.246 3.708 4.246m0 6.153c-3.512 0-6.201-.944-8.066-2.83-1.865-1.887-2.797-4.554-2.797-8V56.548c0-3.445.932-6.111 2.797-7.998 1.865-1.887 4.554-2.83 8.066-2.83 3.512 0 6.201.943 8.066 2.83 1.864 1.887 2.797 4.553 2.797 7.998V79.19c0 3.445-.933 6.112-2.797 7.998-1.865 1.887-4.554 2.83-8.066 2.83M389.68 90.019c-3.47 0-6.093-.923-7.87-2.77-1.779-1.886-2.668-4.573-2.668-8.06v-2.46h6.765v2.953c0 2.79 1.236 4.184 3.708 4.184 1.214 0 2.125-.328 2.732-.985.65-.697.976-1.804.976-3.322 0-1.805-.434-3.384-1.3-4.738-.868-1.394-2.473-3.056-4.815-4.983-2.948-2.462-5.008-4.677-6.18-6.645-1.17-2.01-1.755-4.266-1.755-6.769 0-3.404.91-6.03 2.732-7.875 1.821-1.887 4.466-2.83 7.935-2.83 3.426 0 6.006.943 7.74 2.83 1.779 1.846 2.668 4.512 2.668 7.998v1.785h-6.765v-2.215c0-1.477-.304-2.543-.91-3.2-.608-.697-1.497-1.046-2.668-1.046-2.385 0-3.577 1.374-3.577 4.123 0 1.558.433 3.014 1.3 4.368.911 1.354 2.537 2.995 4.879 4.922 2.992 2.461 5.052 4.697 6.18 6.707 1.127 2.01 1.69 4.368 1.69 7.076 0 3.527-.932 6.235-2.796 8.121-1.821 1.887-4.488 2.83-8 2.83zM293.937 100.073a3.92 3.92 0 0 0-.216-1.322 2.68 2.68 0 0 0-.655-1.056 2.986 2.986 0 0 0-1.117-.69c-.452-.169-1.028-.253-1.728-.253h-1.482v6.807h1.49c.655 0 1.208-.067 1.66-.202.457-.14.837-.352 1.14-.64.303-.286.528-.646.677-1.081.154-.438.231-.96.231-1.563m.976-.037c0 .687-.102 1.294-.305 1.822a3.37 3.37 0 0 1-.902 1.315c-.397.355-.889.622-1.474.804-.581.181-1.276.272-2.086.272h-1.9a.545.545 0 0 1-.275-.083c-.094-.058-.141-.164-.141-.316v-7.39c0-.15.047-.254.141-.309a.519.519 0 0 1 .276-.088h2.026c.82 0 1.51.094 2.07.284.566.19 1.038.46 1.416.81.382.346.67.763.864 1.253.193.485.29 1.026.29 1.626M303.687 103.907a.638.638 0 0 1-.015.146.252.252 0 0 1-.052.107.218.218 0 0 1-.074.07.25.25 0 0 1-.097.019h-4.514a.545.545 0 0 1-.276-.083c-.094-.058-.141-.164-.141-.316v-7.39c0-.15.047-.254.141-.309a.519.519 0 0 1 .276-.088h4.447c.034 0 .067.008.097.025.03.012.054.034.074.063.02.03.035.068.045.114.01.042.015.093.015.152a.64.64 0 0 1-.015.145.323.323 0 0 1-.045.108.25.25 0 0 1-.074.063.243.243 0 0 1-.097.019h-3.955v2.879h3.411c.04 0 .074.008.104.025.03.012.055.033.075.063.02.025.034.061.045.108.01.042.014.092.014.151a.642.642 0 0 1-.014.146.264.264 0 0 1-.045.095.184.184 0 0 1-.075.057.267.267 0 0 1-.104.019h-3.411v3.264h4.022c.034 0 .067.008.097.025.03.013.054.034.074.064.025.025.042.06.052.107a.67.67 0 0 1 .015.152zM319.132 96.891h-.007l-1.818 4.403h3.687l-1.862-4.403zm4 7.099c.03.063.042.116.037.158a.099.099 0 0 1-.052.088.298.298 0 0 1-.15.038c-.064.008-.148.013-.252.013-.105 0-.189-.005-.254-.013a.555.555 0 0 1-.141-.025.202.202 0 0 1-.082-.05.54.54 0 0 1-.045-.077l-.924-2.182h-4.23l-.886 2.17a.202.202 0 0 1-.045.076.28.28 0 0 1-.082.056.744.744 0 0 1-.149.032 2.232 2.232 0 0 1-.492 0 .402.402 0 0 1-.156-.044.124.124 0 0 1-.052-.089c0-.038.015-.088.045-.151l3.374-7.789a.193.193 0 0 1 .067-.082.293.293 0 0 1 .111-.057.987.987 0 0 1 .172-.025 2.014 2.014 0 0 1 .461 0c.07.005.127.013.172.025.05.013.087.032.112.057.03.021.052.049.066.082l3.375 7.789zM333.21 97.094a.732.732 0 0 1-.016.152.403.403 0 0 1-.045.12.16.16 0 0 1-.067.07.142.142 0 0 1-.081.025c-.06 0-.16-.042-.298-.127a5.4 5.4 0 0 0-1.378-.55 4.602 4.602 0 0 0-1.155-.127c-.57 0-1.08.09-1.527.272a3.25 3.25 0 0 0-1.132.734 3.171 3.171 0 0 0-.707 1.114 3.912 3.912 0 0 0-.239 1.379c0 .552.092 1.046.276 1.48.184.43.437.795.76 1.094.327.296.715.521 1.161.677.452.156.944.235 1.475.235.343 0 .69-.036 1.043-.108.353-.071.683-.181.99-.329v-2.65h-2.457a.2.2 0 0 1-.179-.09.45.45 0 0 1-.06-.252c0-.06.005-.11.015-.152a.264.264 0 0 1 .045-.108c.02-.03.045-.05.074-.063a.208.208 0 0 1 .105-.025h2.95c.044 0 .091.006.14.019.05.012.095.034.135.063.044.03.08.072.104.127.025.05.037.113.037.19v3.042c0 .101-.02.188-.06.26-.034.071-.118.141-.252.209a6.402 6.402 0 0 1-.537.215 7.245 7.245 0 0 1-.693.196c-.238.05-.478.088-.722.114-.238.029-.474.044-.707.044-.73 0-1.383-.1-1.96-.297a4.213 4.213 0 0 1-1.452-.848 3.715 3.715 0 0 1-.901-1.303 4.344 4.344 0 0 1-.313-1.67c0-.637.112-1.217.335-1.74.229-.528.547-.977.954-1.348a4.349 4.349 0 0 1 1.474-.86 5.526 5.526 0 0 1 1.892-.31c.348 0 .676.027.983.082.313.055.594.122.842.202.248.076.46.16.633.254.174.088.29.16.35.215a.38.38 0 0 1 .127.151c.025.05.037.125.037.222zM344.143 101.237c0 .498-.084.941-.253 1.33-.164.387-.4.714-.708.98-.307.265-.68.468-1.117.607a4.956 4.956 0 0 1-1.467.203c-.492 0-.946-.066-1.363-.197a3.118 3.118 0 0 1-1.073-.576 2.697 2.697 0 0 1-.7-.949 3.28 3.28 0 0 1-.246-1.31V96.19c0-.026.008-.049.023-.07a.15.15 0 0 1 .074-.05.921.921 0 0 1 .142-.032c.054-.008.126-.012.216-.012.084 0 .156.004.216.012s.106.019.141.032c.035.012.06.03.075.05.015.021.022.044.022.07v5.01c0 .41.057.768.172 1.076.119.308.287.565.506.772.223.202.491.356.804.461.318.102.676.152 1.073.152.402 0 .76-.048 1.073-.145.317-.101.585-.253.804-.456.218-.202.385-.453.499-.752a2.9 2.9 0 0 0 .178-1.063v-5.055c0-.026.008-.049.023-.07a.15.15 0 0 1 .075-.05.705.705 0 0 1 .141-.032 1.57 1.57 0 0 1 .216-.012c.084 0 .156.004.216.012s.107.019.141.032c.035.012.06.03.075.05.015.021.022.044.022.07v5.048zM350.914 96.891h-.008l-1.817 4.403h3.687l-1.862-4.403zm4 7.099c.03.063.042.116.037.158a.099.099 0 0 1-.052.088.298.298 0 0 1-.15.038c-.064.008-.148.013-.252.013-.105 0-.19-.005-.254-.013a.555.555 0 0 1-.142-.025.202.202 0 0 1-.081-.05.54.54 0 0 1-.045-.077l-.924-2.182h-4.23l-.887 2.17a.202.202 0 0 1-.044.076.28.28 0 0 1-.082.056.75.75 0 0 1-.15.032 2.232 2.232 0 0 1-.492 0 .402.402 0 0 1-.155-.044.124.124 0 0 1-.052-.089c0-.038.015-.088.044-.151l3.375-7.789a.195.195 0 0 1 .066-.082.298.298 0 0 1 .112-.057.987.987 0 0 1 .172-.025 2.014 2.014 0 0 1 .461 0c.07.005.127.013.172.025.05.013.087.032.111.057.03.021.053.049.067.082l3.375 7.789zM370.373 104.11a.248.248 0 0 1-.067.088.368.368 0 0 1-.119.05.805.805 0 0 1-.172.026 1.81 1.81 0 0 1-.387.006.645.645 0 0 1-.134-.013.687.687 0 0 1-.104-.019.42.42 0 0 1-.082-.031.19.19 0 0 1-.097-.108l-3.3-7.788a.385.385 0 0 1-.044-.152.122.122 0 0 1 .06-.095.347.347 0 0 1 .156-.037 2.4 2.4 0 0 1 .499 0c.06.004.104.012.134.025.035.012.06.03.074.05.02.022.038.047.053.076l2.994 7.206h.007l2.905-7.206a.294.294 0 0 1 .038-.076.149.149 0 0 1 .074-.05 2.034 2.034 0 0 1 .41-.038c.114 0 .203.004.268.013.07.008.116.022.141.044.03.021.042.05.037.088a.38.38 0 0 1-.044.152l-3.3 7.789zM377.77 104.122a.118.118 0 0 1-.023.07.154.154 0 0 1-.074.05.743.743 0 0 1-.142.032 1.527 1.527 0 0 1-.216.013 1.63 1.63 0 0 1-.216-.013.743.743 0 0 1-.142-.031.155.155 0 0 1-.074-.05.12.12 0 0 1-.023-.07v-7.934a.12.12 0 0 1 .023-.07.208.208 0 0 1 .082-.05.921.921 0 0 1 .141-.032c.06-.008.13-.012.209-.012.09 0 .161.004.216.012a.69.69 0 0 1 .142.032c.034.012.059.03.074.05.015.021.022.044.022.07v7.933zM385.411 104.11a.248.248 0 0 1-.067.088.368.368 0 0 1-.119.05.805.805 0 0 1-.171.026 1.81 1.81 0 0 1-.387.006.646.646 0 0 1-.135-.013.687.687 0 0 1-.104-.019.42.42 0 0 1-.082-.031.19.19 0 0 1-.097-.108l-3.3-7.788a.385.385 0 0 1-.044-.152.122.122 0 0 1 .06-.095.347.347 0 0 1 .156-.037 2.4 2.4 0 0 1 .499 0c.06.004.104.012.134.025.035.012.06.03.075.05.02.022.037.047.052.076l2.994 7.206h.007l2.905-7.206a.294.294 0 0 1 .038-.076.149.149 0 0 1 .074-.05 2.034 2.034 0 0 1 .41-.038c.114 0 .203.004.268.013.07.008.117.022.141.044.03.021.043.05.037.088a.38.38 0 0 1-.044.152l-3.3 7.789zM394.074 96.891h-.009l-1.817 4.403h3.687l-1.861-4.403zm4 7.099c.029.063.041.116.036.158a.099.099 0 0 1-.052.088.298.298 0 0 1-.148.038c-.065.008-.15.013-.254.013-.104 0-.188-.005-.253-.013a.555.555 0 0 1-.142-.025.202.202 0 0 1-.081-.05.54.54 0 0 1-.045-.077l-.924-2.182h-4.23l-.887 2.17a.208.208 0 0 1-.044.076.286.286 0 0 1-.082.056.75.75 0 0 1-.15.032 2.316 2.316 0 0 1-.492 0 .402.402 0 0 1-.156-.044.124.124 0 0 1-.052-.089c0-.038.015-.088.045-.151l3.374-7.789a.199.199 0 0 1 .067-.082.298.298 0 0 1 .112-.057.977.977 0 0 1 .171-.025 2.005 2.005 0 0 1 .462 0c.07.005.127.013.171.025.05.013.087.032.112.057.03.021.052.049.067.082l3.374 7.789zM346.567 39.993a.118.118 0 0 1-.022.07.154.154 0 0 1-.075.05.745.745 0 0 1-.141.032 1.533 1.533 0 0 1-.216.013 1.63 1.63 0 0 1-.216-.013.743.743 0 0 1-.142-.031.155.155 0 0 1-.074-.05.12.12 0 0 1-.023-.07V32.06a.12.12 0 0 1 .023-.07.208.208 0 0 1 .082-.05.921.921 0 0 1 .141-.032c.06-.008.13-.012.209-.012.09 0 .161.004.216.012.06.008.107.019.141.032.035.012.06.03.075.05.015.021.022.045.022.07v7.933zM357.784 32.965a.732.732 0 0 1-.015.152.403.403 0 0 1-.045.12.16.16 0 0 1-.067.07.142.142 0 0 1-.081.025c-.06 0-.16-.042-.298-.127a5.4 5.4 0 0 0-1.378-.55 4.602 4.602 0 0 0-1.155-.127c-.57 0-1.08.091-1.527.272a3.25 3.25 0 0 0-1.132.734 3.171 3.171 0 0 0-.707 1.114 3.912 3.912 0 0 0-.239 1.379c0 .553.092 1.046.276 1.48.184.43.437.795.76 1.095.327.295.715.52 1.161.677.452.156.944.234 1.475.234.343 0 .69-.036 1.043-.108.353-.072.683-.181.99-.329v-2.65h-2.457a.2.2 0 0 1-.179-.09.45.45 0 0 1-.06-.252c0-.06.005-.11.015-.152a.264.264 0 0 1 .045-.108c.02-.029.045-.05.074-.063a.208.208 0 0 1 .105-.025h2.95c.044 0 .091.006.14.019.05.012.095.034.135.063.045.03.08.072.104.127.025.05.037.114.037.19v3.042c0 .102-.02.188-.06.26-.034.071-.118.141-.252.209a6.403 6.403 0 0 1-.537.215 7.245 7.245 0 0 1-.693.196c-.238.05-.478.088-.722.114-.238.03-.474.044-.707.044-.73 0-1.383-.099-1.96-.297a4.213 4.213 0 0 1-1.452-.848 3.72 3.72 0 0 1-.901-1.303 4.344 4.344 0 0 1-.313-1.67c0-.637.112-1.217.335-1.74.229-.528.547-.977.954-1.348a4.349 4.349 0 0 1 1.474-.86 5.526 5.526 0 0 1 1.892-.31c.348 0 .676.027.983.082.313.055.594.122.842.202.248.076.46.16.633.254.174.088.29.16.35.215.065.05.107.1.127.151.025.051.037.125.037.222zM366.648 39.766c0 .059-.005.11-.015.152a.412.412 0 0 1-.045.114.22.22 0 0 1-.074.069.261.261 0 0 1-.105.019h-4.178a.548.548 0 0 1-.276-.082c-.094-.06-.141-.165-.141-.317v-7.66c0-.026.007-.05.022-.07a.152.152 0 0 1 .075-.051.711.711 0 0 1 .141-.032c.06-.008.132-.012.216-.012.09 0 .161.004.216.012.06.008.107.019.141.032.035.012.06.03.075.05.015.021.022.045.022.07v7.358h3.687c.04 0 .075.008.105.025.03.012.054.034.074.063a.26.26 0 0 1 .045.108c.01.042.015.093.015.152zM374.803 39.778a.638.638 0 0 1-.015.146.252.252 0 0 1-.052.107.218.218 0 0 1-.074.07.25.25 0 0 1-.097.019h-4.514a.545.545 0 0 1-.275-.082c-.094-.06-.142-.165-.142-.316v-7.39c0-.152.048-.255.142-.31a.519.519 0 0 1 .275-.088h4.447c.035 0 .067.008.097.025.03.013.055.034.074.063.02.03.035.068.045.114.01.042.015.093.015.152a.64.64 0 0 1-.015.145.323.323 0 0 1-.045.108.25.25 0 0 1-.074.063.243.243 0 0 1-.097.02h-3.955v2.878h3.411c.04 0 .075.008.105.025.03.013.054.034.074.063.02.026.035.061.045.108.01.042.015.092.015.151a.642.642 0 0 1-.015.146.264.264 0 0 1-.045.095.184.184 0 0 1-.074.057.267.267 0 0 1-.105.019h-3.41v3.264h4.02c.036 0 .068.008.098.025.03.013.055.034.074.064.025.025.043.06.052.107a.67.67 0 0 1 .015.152zM383.25 37.906c0 .362-.077.687-.231.974-.154.287-.37.531-.648.734-.278.198-.608.35-.99.456-.383.105-.8.157-1.252.157-.308 0-.598-.025-.871-.076a5.433 5.433 0 0 1-1.274-.373 1.614 1.614 0 0 1-.298-.177.46.46 0 0 1-.12-.17.716.716 0 0 1-.036-.247c0-.072.005-.131.015-.178a.493.493 0 0 1 .037-.113.14.14 0 0 1 .067-.057.231.231 0 0 1 .09-.02c.069 0 .165.039.29.115.129.071.293.152.491.24.204.085.445.165.723.24.283.072.61.108.983.108.303 0 .58-.034.834-.101a2.11 2.11 0 0 0 .656-.304 1.36 1.36 0 0 0 .58-1.139c0-.252-.064-.47-.193-.651-.13-.182-.3-.34-.514-.474a4 4 0 0 0-.715-.374 27.842 27.842 0 0 0-.827-.335 13.81 13.81 0 0 1-.82-.367 3.76 3.76 0 0 1-.722-.456 2.172 2.172 0 0 1-.506-.62 1.725 1.725 0 0 1-.194-.84c0-.317.067-.6.201-.849.134-.253.323-.466.566-.639.244-.177.534-.312.872-.405a4.29 4.29 0 0 1 2.331.045c.189.05.355.11.5.177.148.063.245.116.29.158.05.038.08.067.089.088.015.017.027.04.037.07a.55.55 0 0 1 .023.108c.004.038.007.086.007.145a.705.705 0 0 1-.015.152.384.384 0 0 1-.03.114.183.183 0 0 1-.06.07.112.112 0 0 1-.074.025.642.642 0 0 1-.253-.089 4.72 4.72 0 0 0-.417-.208 3.696 3.696 0 0 0-.603-.203 3.059 3.059 0 0 0-.797-.095c-.293 0-.55.034-.768.102-.218.067-.4.16-.543.278a1.136 1.136 0 0 0-.328.405c-.07.156-.104.32-.104.493 0 .253.064.47.193.652.13.181.3.342.515.48.213.14.454.266.722.38l.827.336c.283.109.558.23.826.36.274.127.517.278.73.456.214.173.385.377.514.613.13.232.194.509.194.83v-.001zM387.615 39.993a.118.118 0 0 1-.023.07.154.154 0 0 1-.074.05.743.743 0 0 1-.142.032 1.527 1.527 0 0 1-.216.013 1.63 1.63 0 0 1-.216-.013.732.732 0 0 1-.141-.031.155.155 0 0 1-.075-.05.12.12 0 0 1-.022-.07V32.06a.12.12 0 0 1 .022-.07.208.208 0 0 1 .082-.05.921.921 0 0 1 .142-.032c.06-.008.129-.012.208-.012.09 0 .161.004.216.012a.69.69 0 0 1 .142.032c.035.012.06.03.074.05.015.021.023.045.023.07v7.933zM394.705 32.762h-.007l-1.818 4.404h3.687l-1.862-4.404zm4 7.099c.03.063.042.116.037.158a.099.099 0 0 1-.052.088.298.298 0 0 1-.149.038c-.064.009-.149.013-.253.013-.104 0-.189-.004-.253-.013a.555.555 0 0 1-.142-.025.202.202 0 0 1-.082-.05.578.578 0 0 1-.044-.077l-.924-2.182h-4.23l-.887 2.17a.202.202 0 0 1-.045.076.28.28 0 0 1-.082.057.75.75 0 0 1-.149.031 2.232 2.232 0 0 1-.492 0 .402.402 0 0 1-.156-.044.124.124 0 0 1-.052-.089c0-.038.015-.088.045-.151l3.374-7.788a.195.195 0 0 1 .067-.083.298.298 0 0 1 .112-.057.987.987 0 0 1 .171-.025 2.014 2.014 0 0 1 .462 0c.07.005.127.013.171.025.05.013.087.032.112.057.03.022.052.049.067.083l3.374 7.788zM328.436 36.18h8.37l-3.196 2.917-4.267 3.896h-5.79z"/>
    </g>
</svg>
